<svg width="74" height="74" viewBox="0 0 74 74" fill="none" xmlns="http://www.w3.org/2000/svg">
<path fill-rule="evenodd" clip-rule="evenodd" d="M36.25 1.25C55.58 1.25 71.25 16.92 71.25 36.25C71.25 55.58 55.58 71.25 36.25 71.25C16.92 71.25 1.25 55.58 1.25 36.25C1.25 16.92 16.92 1.25 36.25 1.25Z" fill="#C4C4C4" fill-opacity="0.5" stroke="white" stroke-width="2.5"/>
<path opacity="0.6" fill-rule="evenodd" clip-rule="evenodd" d="M36.8282 4.75C46.1742 4.75 53.7503 18.853 53.7503 36.25C53.7503 53.647 46.1742 67.75 36.8282 67.75C27.4822 67.75 19.9062 53.647 19.9062 36.25C19.9062 18.853 27.4822 4.75 36.8282 4.75Z" stroke="white" stroke-width="1.25"/>
<path opacity="0.6" fill-rule="evenodd" clip-rule="evenodd" d="M36.25 19.9058C53.647 19.9058 67.75 27.4818 67.75 36.8278C67.75 46.1738 53.647 53.7498 36.25 53.7498C18.853 53.7498 4.75 46.1738 4.75 36.8278C4.75 27.4818 18.853 19.9058 36.25 19.9058Z" stroke="white" stroke-width="1.25"/>
<path d="M18.6309 33.1025H19.8526C20.6202 33.0908 21.2237 32.8887 21.6631 32.4961C22.1026 32.1035 22.3223 31.5732 22.3223 30.9053C22.3223 29.4053 21.5752 28.6553 20.0811 28.6553C19.378 28.6553 18.8155 28.8574 18.3936 29.2617C17.9776 29.6602 17.7696 30.1904 17.7696 30.8525H16.1436C16.1436 29.8389 16.5127 28.998 17.251 28.3301C17.9952 27.6562 18.9385 27.3193 20.0811 27.3193C21.2881 27.3193 22.2344 27.6387 22.92 28.2773C23.6055 28.916 23.9483 29.8037 23.9483 30.9404C23.9483 31.4971 23.7666 32.0361 23.4034 32.5576C23.0459 33.0791 22.5567 33.4688 21.9356 33.7266C22.6387 33.9492 23.1807 34.3184 23.5616 34.834C23.9483 35.3496 24.1416 35.9795 24.1416 36.7236C24.1416 37.8721 23.7666 38.7832 23.0166 39.457C22.2666 40.1309 21.291 40.4678 20.0899 40.4678C18.8887 40.4678 17.9102 40.1426 17.1543 39.4922C16.4043 38.8418 16.0293 37.9834 16.0293 36.917H17.6641C17.6641 37.5908 17.8838 38.1299 18.3233 38.5342C18.7627 38.9385 19.3516 39.1406 20.0899 39.1406C20.875 39.1406 21.4756 38.9355 21.8916 38.5254C22.3077 38.1152 22.5157 37.5264 22.5157 36.7588C22.5157 36.0146 22.2871 35.4434 21.8301 35.0449C21.3731 34.6465 20.7139 34.4414 19.8526 34.4297H18.6309V33.1025ZM32.7549 27.4863V28.8662H32.4561C31.1905 28.8896 30.1827 29.2646 29.4327 29.9912C28.6827 30.7178 28.2491 31.7402 28.1319 33.0586C28.8057 32.2852 29.7256 31.8984 30.8916 31.8984C32.0049 31.8984 32.8926 32.291 33.5547 33.0762C34.2227 33.8613 34.5567 34.875 34.5567 36.1172C34.5567 37.4355 34.1963 38.4902 33.4756 39.2812C32.7608 40.0723 31.7998 40.4678 30.5928 40.4678C29.3682 40.4678 28.375 39.999 27.6133 39.0615C26.8516 38.1182 26.4707 36.9053 26.4707 35.4229V34.7988C26.4707 32.4434 26.9717 30.6445 27.9737 29.4023C28.9815 28.1543 30.4785 27.5156 32.4649 27.4863H32.7549ZM30.6192 33.252C30.0625 33.252 29.5498 33.4189 29.0811 33.7529C28.6123 34.0869 28.2871 34.5059 28.1055 35.0098V35.6074C28.1055 36.6621 28.3428 37.5117 28.8174 38.1562C29.292 38.8008 29.8838 39.123 30.5928 39.123C31.3252 39.123 31.8994 38.8535 32.3155 38.3145C32.7373 37.7754 32.9483 37.0693 32.9483 36.1963C32.9483 35.3174 32.7344 34.6084 32.3067 34.0693C31.8848 33.5244 31.3223 33.252 30.6192 33.252ZM44.5059 34.834C44.5059 36.7383 44.1807 38.1533 43.5303 39.0791C42.8799 40.0049 41.8633 40.4678 40.4805 40.4678C39.1153 40.4678 38.1045 40.0166 37.4483 39.1143C36.792 38.2061 36.4522 36.8525 36.4287 35.0537V32.8828C36.4287 31.002 36.7539 29.6045 37.4043 28.6904C38.0547 27.7764 39.0743 27.3193 40.4629 27.3193C41.8399 27.3193 42.8535 27.7617 43.5039 28.6465C44.1543 29.5254 44.4883 30.8848 44.5059 32.7246V34.834ZM42.8799 32.6104C42.8799 31.2334 42.6866 30.2314 42.2998 29.6045C41.9131 28.9717 41.3008 28.6553 40.4629 28.6553C39.6309 28.6553 39.0244 28.9688 38.6436 29.5957C38.2627 30.2227 38.0664 31.1865 38.0547 32.4873V35.0889C38.0547 36.4717 38.2539 37.4941 38.6524 38.1562C39.0567 38.8125 39.666 39.1406 40.4805 39.1406C41.2832 39.1406 41.878 38.8301 42.2647 38.209C42.6573 37.5879 42.8623 36.6094 42.8799 35.2734V32.6104ZM50.3682 27.917C50.3682 28.4268 50.1866 28.8545 49.8233 29.2002C49.46 29.54 49.0118 29.71 48.4785 29.71C47.9395 29.71 47.4883 29.5371 47.125 29.1914C46.7676 28.8457 46.5889 28.4209 46.5889 27.917C46.5889 27.4131 46.7676 26.9824 47.125 26.625C47.4883 26.2676 47.9395 26.0889 48.4785 26.0889C49.0176 26.0889 49.4659 26.2676 49.8233 26.625C50.1866 26.9824 50.3682 27.4131 50.3682 27.917ZM47.459 27.917C47.459 28.1924 47.5557 28.4297 47.7491 28.6289C47.9483 28.8281 48.1914 28.9277 48.4785 28.9277C48.7598 28.9277 49 28.8311 49.1993 28.6377C49.3985 28.4443 49.4981 28.2041 49.4981 27.917C49.4981 27.6299 49.3985 27.3867 49.1993 27.1875C49.0059 26.9824 48.7657 26.8799 48.4785 26.8799C48.1856 26.8799 47.9424 26.9824 47.7491 27.1875C47.5557 27.3926 47.459 27.6357 47.459 27.917Z" fill="white"/>
</svg>
