<svg width="241" height="54" viewBox="0 0 241 54" fill="none" xmlns="http://www.w3.org/2000/svg">
<path fill-rule="evenodd" clip-rule="evenodd" d="M238.639 43.6289H237.18V45.7679H236.501V39.7069H238.751C240.107 39.7069 241 40.4339 241 41.6289V41.6459C241 42.9539 239.918 43.6289 238.639 43.6289ZM240.313 41.6549C240.313 40.7879 239.669 40.3379 238.699 40.3379H237.18V43.0049H238.665C239.66 43.0049 240.313 42.4679 240.313 41.6709V41.6549ZM231.447 30.2179C225.988 30.2179 221.945 26.0339 221.945 20.8109V20.7589C221.945 15.5349 226.039 11.2999 231.498 11.2999C236.957 11.2999 241 15.4829 241 20.7069V20.7589C241 25.9819 236.905 30.2179 231.447 30.2179ZM235.996 20.7589C235.996 18.1339 234.151 15.8469 231.447 15.8469C228.768 15.8469 226.974 18.0819 226.974 20.7069V20.7589C226.974 23.3839 228.818 25.6709 231.498 25.6709C234.202 25.6709 235.996 23.4359 235.996 20.8109V20.7589ZM218.598 45.8709C216.769 45.8709 215.542 44.4249 215.542 42.7539V42.7369C215.542 41.0659 216.786 39.6019 218.615 39.6019C220.444 39.6019 221.671 41.0489 221.671 42.7199V42.7369C221.671 44.4079 220.426 45.8709 218.598 45.8709ZM220.967 42.7369C220.967 41.3599 219.972 40.2349 218.598 40.2349C217.224 40.2349 216.245 41.3429 216.245 42.7199V42.7369C216.245 44.1129 217.241 45.2389 218.615 45.2389C219.988 45.2389 220.967 44.1309 220.967 42.7539V42.7369ZM205.464 11.6639H210.366V25.4369H218.934V29.8539H205.464V11.6639ZM198.78 45.8709C196.892 45.8709 195.725 44.4859 195.725 42.7539V42.7369C195.725 41.0739 196.935 39.6019 198.738 39.6019C199.751 39.6019 200.378 39.8959 200.978 40.4079L200.541 40.9269C200.077 40.5209 199.562 40.2349 198.713 40.2349C197.381 40.2349 196.428 41.3689 196.428 42.7199V42.7369C196.428 44.1819 197.347 45.2569 198.807 45.2569C199.494 45.2569 200.129 44.9879 200.541 44.6509V43.1429H198.713V42.5289H201.193V44.9449C200.635 45.4469 199.794 45.8709 198.78 45.8709ZM187.365 11.6639H192.268V25.4369H200.835V29.8539H187.365V11.6639ZM181.224 39.7069H181.903V45.1349H185.285V45.7679H181.224V39.7069ZM167.977 11.6639H182.206V15.9509H172.83V18.7059H181.321V22.6819H172.83V25.5659H182.332V29.8539H167.977V11.6639ZM161.44 40.7979V45.7679H160.779V39.7069H161.415L165.201 44.5639V39.7069H165.862V45.7679H165.321L161.44 40.7979ZM155.666 25.6179C157.511 25.6179 158.597 24.7349 159.659 23.4099L163.349 26.1119C161.681 28.4769 159.431 30.2179 155.514 30.2179C150.46 30.2179 146.391 26.2419 146.391 20.8109V20.7589C146.391 15.4579 150.359 11.2999 155.716 11.2999C159.33 11.2999 161.655 12.8589 163.222 15.0939L159.532 18.0299C158.522 16.7309 157.359 15.8989 155.666 15.8989C153.19 15.8989 151.446 18.0559 151.446 20.7069V20.7589C151.446 23.4879 153.19 25.6179 155.666 25.6179ZM144.167 39.7069H144.844V45.7679H144.167V39.7069ZM136.305 11.6639H141.234V29.8539H136.305V11.6639ZM139.396 40.3379H137.378V45.7679H136.692V40.3379H134.674V39.7069H139.396V40.3379ZM126.218 29.8539H121.315V16.0809H116.008V11.6639H131.525V16.0809H126.218V29.8539ZM119.854 44.5639V39.7069H120.515V45.7679H119.974L116.093 40.7979V45.7679H115.432V39.7069H116.068L119.854 44.5639ZM99.476 19.8749V29.8539H94.624V11.6639H99.198L106.476 21.2789V11.6639H111.328V29.8539H107.032L99.476 19.8749ZM89.866 45.7679H89.18V40.3379H87.162V39.7069H91.884V40.3379H89.866V45.7679ZM79.986 30.2179C74.527 30.2179 70.484 26.0339 70.484 20.8109V20.7589C70.484 15.5349 74.578 11.2999 80.037 11.2999C85.496 11.2999 89.539 15.4829 89.539 20.7069V20.7589C89.539 25.9819 85.444 30.2179 79.986 30.2179ZM84.535 20.7589C84.535 18.1339 82.69 15.8469 79.986 15.8469C77.307 15.8469 75.513 18.0819 75.513 20.7069V20.7589C75.513 23.3839 77.358 25.6709 80.037 25.6709C82.741 25.6709 84.535 23.4359 84.535 20.8109V20.7589ZM68.047 53.7689L67.676 53.9889L36.367 0.224859L36.737 0.00585938L46.622 16.9809V11.6639H51.803L56.023 18.7059L60.243 11.6639H65.424V29.8539H60.547V19.4069L56.023 26.5279H55.922L51.424 19.4589V25.2249L68.047 53.7689ZM30.983 12.9579L51.538 48.1479L22.919 48.3999L25.241 42.7909L41.89 42.6439L31.08 24.1359L17.439 48.4489L0 48.6019L25.747 3.83486L28.976 9.36086L9.671 42.9279L14.191 42.8879L30.983 12.9579ZM72.172 45.7679H71.494V39.7069H72.172V45.7679ZM81.791 44.5639V39.7069H82.452V45.7679H81.911L78.03 40.7979V45.7679H77.369V39.7069H78.005L81.791 44.5639ZM100.939 40.3299H97.273V42.3989H100.552V43.0219H97.273V45.1429H100.981V45.7679H96.594V39.7069H100.939V40.3299ZM110.078 40.3129C110.369 40.6069 110.541 41.0319 110.541 41.5069V41.5239C110.541 42.5289 109.854 43.1179 108.911 43.2909L110.756 45.7679H109.923L108.181 43.4119H106.464V45.7679H105.785V39.7069H108.37C109.108 39.7069 109.7 39.9319 110.078 40.3129ZM106.464 40.3379V42.7979H108.309C109.211 42.7979 109.854 42.3299 109.854 41.5509V41.5329C109.854 40.7879 109.288 40.3379 108.318 40.3379H106.464ZM128.513 39.6629L131.252 45.7679H130.522L129.818 44.1649H126.547L125.834 45.7679H125.139L127.878 39.6629H128.513ZM129.552 43.5509L128.187 40.4599L126.813 43.5509H129.552ZM152.85 39.6019C154.679 39.6019 155.906 41.0489 155.906 42.7199V42.7369C155.906 44.4079 154.661 45.8709 152.832 45.8709C151.003 45.8709 149.776 44.4249 149.776 42.7539V42.7369C149.776 41.0659 151.021 39.6019 152.85 39.6019ZM150.48 42.7369C150.48 44.1129 151.476 45.2389 152.85 45.2389C154.223 45.2389 155.202 44.1309 155.202 42.7539V42.7369C155.202 41.3599 154.206 40.2349 152.832 40.2349C151.459 40.2349 150.48 41.3429 150.48 42.7199V42.7369ZM173.861 39.6629L176.599 45.7679H175.87L175.166 44.1649H171.895L171.182 45.7679H170.487L173.225 39.6629H173.861ZM174.9 43.5509L173.534 40.4599L172.161 43.5509H174.9ZM210.454 40.3129C210.746 40.6069 210.918 41.0319 210.918 41.5069V41.5239C210.918 42.5289 210.231 43.1179 209.287 43.2909L211.132 45.7679H210.299L208.557 43.4119H206.84V45.7679H206.161V39.7069H208.746C209.484 39.7069 210.076 39.9319 210.454 40.3129ZM206.84 40.3379V42.7979H208.685C209.587 42.7979 210.231 42.3299 210.231 41.5509V41.5329C210.231 40.7879 209.664 40.3379 208.694 40.3379H206.84ZM227.129 43.1869C227.129 44.4939 227.816 45.2299 228.966 45.2299C230.074 45.2299 230.778 44.5539 230.778 43.2299V39.7069H231.456V43.1789C231.456 44.9449 230.452 45.8619 228.949 45.8619C227.464 45.8619 226.451 44.9449 226.451 43.2299V39.7069H227.129V43.1869Z" fill="white"/>
</svg>
