<svg width="106" height="106" viewBox="0 0 106 106" fill="none" xmlns="http://www.w3.org/2000/svg">
<path opacity="0.302" fill-rule="evenodd" clip-rule="evenodd" d="M53 0C82.271 0 106 23.729 106 53C106 82.271 82.271 106 53 106C23.729 106 0 82.271 0 53C0 23.729 23.729 0 53 0Z" fill="white"/>
<path opacity="0.8" fill-rule="evenodd" clip-rule="evenodd" d="M53 18C72.33 18 88 33.67 88 53C88 72.33 72.33 88 53 88C33.67 88 18 72.33 18 53C18 33.67 33.67 18 53 18Z" fill="white"/>
<path fill-rule="evenodd" clip-rule="evenodd" d="M53 45C57.418 45 61 48.582 61 53C61 57.418 57.418 61 53 61C48.582 61 45 57.418 45 53C45 48.582 48.582 45 53 45Z" fill="#7E5AFF"/>
</svg>
