<svg width="40" height="40" viewBox="0 0 40 40" fill="none" xmlns="http://www.w3.org/2000/svg">
<rect x="0.5" y="0.5" width="39" height="39" rx="19.5" stroke="white" stroke-opacity="0.5"/>
<path d="M22.2222 19.6878L18.6621 16.1278C18.5798 16.0454 18.4699 16 18.3527 16C18.2355 16 18.1255 16.0454 18.0432 16.1278L17.781 16.3899C17.6104 16.5607 17.6104 16.8383 17.781 17.0088L20.7705 19.9983L17.7777 22.9912C17.6954 23.0736 17.6499 23.1834 17.6499 23.3006C17.6499 23.4178 17.6954 23.5277 17.7777 23.6101L18.0399 23.8722C18.1223 23.9546 18.2321 24 18.3493 24C18.4665 24 18.5765 23.9546 18.6588 23.8722L22.2222 20.3089C22.3048 20.2262 22.3501 20.1159 22.3498 19.9985C22.3501 19.8807 22.3048 19.7704 22.2222 19.6878Z" fill="white"/>
</svg>
