<svg width="40" height="40" viewBox="0 0 40 40" fill="none" xmlns="http://www.w3.org/2000/svg">
<rect x="0.5" y="0.5" width="39" height="39" rx="19.5" stroke="white" stroke-opacity="0.5"/>
<path d="M17.7778 20.3122L21.3379 23.8722C21.4202 23.9546 21.5301 24 21.6473 24C21.7645 24 21.8745 23.9546 21.9568 23.8722L22.219 23.6101C22.3896 23.4393 22.3896 23.1617 22.219 22.9912L19.2295 20.0017L22.2223 17.0088C22.3046 16.9264 22.3501 16.8166 22.3501 16.6994C22.3501 16.5822 22.3046 16.4723 22.2223 16.3899L21.9601 16.1278C21.8777 16.0454 21.7679 16 21.6507 16C21.5335 16 21.4235 16.0454 21.3412 16.1278L17.7778 19.6911C17.6952 19.7738 17.6499 19.8841 17.6502 20.0015C17.6499 20.1193 17.6952 20.2296 17.7778 20.3122Z" fill="white"/>
</svg>
